<svg xmlns="http://www.w3.org/2000/svg" viewBox="0 0 41 41"><defs><style>.cls-1{fill:none;}.cls-1,.cls-3{stroke:#1d1d1b;}.cls-2{fill:#1d1d1b;}.cls-3{fill:#fff;}</style></defs><title>Asset 6</title><g id="Layer_2" data-name="Layer 2"><g id="Layer_1-2" data-name="Layer 1"><circle class="cls-1" cx="20.5" cy="20.5" r="20"/><path class="cls-1" d="M29.5,12.05a13.29,13.29,0,0,0-15.39-1.9"/><polygon class="cls-2" points="13.4 7.99 11.5 12.05 15.97 11.67 13.4 7.99"/><path class="cls-1" d="M26.76,31.07a13.29,13.29,0,0,1-15.39-1.9"/><polygon class="cls-2" points="24.91 29.56 29.38 29.17 27.48 33.24 24.91 29.56"/><path class="cls-1" d="M6.31,23.14V21.3a2.55,2.55,0,0,1,2.55-2.55h3.41a2.55,2.55,0,0,1,2.55,2.55v1.84"/><circle class="cls-1" cx="10.56" cy="16.44" r="2"/><path class="cls-1" d="M10,27.42V25.57A2.55,2.55,0,0,1,12.53,23h3.41a2.55,2.55,0,0,1,2.55,2.55v1.84"/><circle class="cls-3" cx="14.23" cy="20.71" r="2"/><path class="cls-1" d="M35.07,23.14V21.3a2.55,2.55,0,0,0-2.55-2.55H29.11a2.55,2.55,0,0,0-2.55,2.55v1.84"/><circle class="cls-1" cx="30.82" cy="16.44" r="2"/><path class="cls-1" d="M31.4,27.42V25.57A2.55,2.55,0,0,0,28.85,23H25.45a2.55,2.55,0,0,0-2.55,2.55v1.84"/><circle class="cls-3" cx="27.15" cy="20.71" r="2"/></g></g></svg>