<?xml version="1.0" encoding="UTF-8" standalone="no"?>
<svg width="42px" height="42px" viewBox="0 0 42 42" version="1.1" xmlns="http://www.w3.org/2000/svg" xmlns:xlink="http://www.w3.org/1999/xlink">
    <!-- Generator: Sketch 41.2 (35397) - http://www.bohemiancoding.com/sketch -->
    <title>Conclusion icon</title>
    <desc>Created with Sketch.</desc>
    <defs></defs>
    <g id="Page-1" stroke="none" stroke-width="1" fill="none" fill-rule="evenodd">
        <g id="Artboard-Copy-3" transform="translate(-179.000000, -1346.000000)" stroke="#000000">
            <g id="Conclusion-icon" transform="translate(180.000000, 1347.000000)">
                <circle id="Oval" cx="20" cy="20" r="20"></circle>
                <g id="file" transform="translate(11.000000, 8.000000)" stroke-linecap="round" stroke-linejoin="round">
                    <path d="M1.35,0 L13.05,0 L18,5.07692308 L18,22.6153846 C18,23.3796923 17.3952,24 16.65,24 L1.35,24 C0.60435,24 0,23.3796923 0,22.6153846 L0,1.38461538 C0,0.620307692 0.60435,0 1.35,0" id="Path"></path>
                    <path d="M13,0 L13,4.5 C13,5.328 13.672,6 14.5,6 L18,6" id="Path"></path>
                    <path d="M3,6 L9,6" id="Path"></path>
                    <path d="M3,9 L15,9" id="Path"></path>
                    <path d="M3,12 L15,12" id="Path"></path>
                    <path d="M3,15 L15,15" id="Path"></path>
                    <path d="M3,18 L13,18" id="Path"></path>
                </g>
            </g>
        </g>
    </g>
</svg>