<?xml version="1.0" encoding="UTF-8" standalone="no"?>
<svg width="42px" height="42px" viewBox="0 0 42 42" version="1.1" xmlns="http://www.w3.org/2000/svg" xmlns:xlink="http://www.w3.org/1999/xlink">
    <!-- Generator: Sketch 41.2 (35397) - http://www.bohemiancoding.com/sketch -->
    <title>Find icon</title>
    <desc>Created with Sketch.</desc>
    <defs></defs>
    <g id="Page-1" stroke="none" stroke-width="1" fill="none" fill-rule="evenodd">
        <g id="Artboard-Copy-3" transform="translate(-179.000000, -747.000000)" stroke="#4A4A4A">
            <g id="Find-icon" transform="translate(180.000000, 748.000000)">
                <g id="Intro-icon-Copy">
                    <ellipse id="Oval" cx="20" cy="20" rx="20" ry="20"></ellipse>
                </g>
                <g id="telephone_signal" transform="translate(7.000000, 8.500000)" stroke-linecap="round" stroke-linejoin="round">
                    <path d="M19.2994375,15.525125 C18.7963125,15.022 17.98125,15.022 17.4776875,15.525125 L15.351875,17.651375 C14.513625,18.489625 11.626125,17.569125 9.2780625,15.2210625 C6.930875,12.873 6.010375,9.986375 6.8495,9.148125 L8.974875,7.0223125 C9.478,6.51875 9.478,5.7036875 8.974875,5.2005625 L5.026875,1.2525625 C4.52375,0.7494375 3.7086875,0.7494375 3.205125,1.2525625 L0.9270625,3.52975 C-1.5036875,5.9618125 1.0110625,12.4201875 6.5454375,17.9545625 C12.0798125,23.4889375 18.5381875,26.0045625 20.97025,23.5720625 L23.2474375,21.294875 C23.7505625,20.7913125 23.7505625,19.97625 23.2474375,19.473125 L19.2994375,15.525125 L19.2994375,15.525125 Z" id="Path"></path>
                    <path d="M22.0329375,22.5098125 L16.26275,16.7405 L22.0329375,22.5098125 Z" id="Path"></path>
                    <path d="M7.760375,8.236375 L1.9901875,2.4670625 L7.760375,8.236375 Z" id="Path"></path>
                    <path d="M13.125,7 C14.245,7 15.364125,7.427 16.218125,8.281 C17.0725625,9.1354375 17.5004375,10.255 17.5,11.375" id="Path"></path>
                    <path d="M13.125,3.5 C15.140125,3.5 17.1556875,4.26825 18.6935,5.8060625 C20.230875,7.3434375 21,9.3594375 21,11.375" id="Path"></path>
                    <path d="M13.125,0 C16.036125,0 18.9476875,1.1099375 21.1684375,3.3306875 C23.3891875,5.5514375 24.5,8.463875 24.5,11.375" id="Path"></path>
                </g>
            </g>
        </g>
    </g>
</svg>