<?xml version="1.0" encoding="UTF-8" standalone="no"?>
<svg width="42px" height="42px" viewBox="0 0 42 42" version="1.1" xmlns="http://www.w3.org/2000/svg" xmlns:xlink="http://www.w3.org/1999/xlink">
    <!-- Generator: Sketch 41.2 (35397) - http://www.bohemiancoding.com/sketch -->
    <title>Group 2</title>
    <desc>Created with Sketch.</desc>
    <defs>
        <ellipse id="path-1" cx="20" cy="20" rx="20" ry="20"></ellipse>
        <mask id="mask-2" maskContentUnits="userSpaceOnUse" maskUnits="objectBoundingBox" x="-1" y="-1" width="42" height="42">
            <rect x="-1" y="-1" width="42" height="42" fill="white"></rect>
            <use xlink:href="#path-1" fill="black"></use>
        </mask>
    </defs>
    <g id="Page-1" stroke="none" stroke-width="1" fill="none" fill-rule="evenodd">
        <g id="Artboard-Copy-3" transform="translate(-179.000000, -2046.000000)" stroke="#000000">
            <g id="Group-2" transform="translate(180.000000, 2047.000000)">
                <g id="Conclusion-icon" stroke-width="2">
                    <use id="Oval" mask="url(#mask-2)" xlink:href="#path-1"></use>
                </g>
                <g id="court" transform="translate(8.000000, 7.000000)" stroke-linecap="round" stroke-linejoin="round">
                    <polygon id="Path" points="18.828125 17.828125 20.515625 17.828125 20.515625 8.546875 18.828125 8.546875"></polygon>
                    <polygon id="Path" points="17.984375 6.859375 21.359375 6.859375 21.359375 8.546875 17.984375 8.546875"></polygon>
                    <polygon id="Path" points="17.984375 17.828125 21.359375 17.828125 21.359375 19.515625 17.984375 19.515625"></polygon>
                    <polygon id="Path" points="13.765625 17.828125 15.453125 17.828125 15.453125 8.546875 13.765625 8.546875"></polygon>
                    <polygon id="Path" points="12.921875 6.859375 16.296875 6.859375 16.296875 8.546875 12.921875 8.546875"></polygon>
                    <polygon id="Path" points="12.921875 17.828125 16.296875 17.828125 16.296875 19.515625 12.921875 19.515625"></polygon>
                    <polygon id="Path" points="8.703125 17.828125 10.390625 17.828125 10.390625 8.546875 8.703125 8.546875"></polygon>
                    <polygon id="Path" points="7.859375 6.859375 11.234375 6.859375 11.234375 8.546875 7.859375 8.546875"></polygon>
                    <polygon id="Path" points="7.859375 17.828125 11.234375 17.828125 11.234375 19.515625 7.859375 19.515625"></polygon>
                    <polygon id="Path" points="3.640625 17.828125 5.328125 17.828125 5.328125 8.546875 3.640625 8.546875"></polygon>
                    <polygon id="Path" points="2.796875 6.859375 6.171875 6.859375 6.171875 8.546875 2.796875 8.546875"></polygon>
                    <polygon id="Path" points="2.796875 17.828125 6.171875 17.828125 6.171875 19.515625 2.796875 19.515625"></polygon>
                    <polygon id="Path" points="1.109375 21.203125 23.046875 21.203125 23.046875 19.515625 1.109375 19.515625"></polygon>
                    <polygon id="Path" points="1.109375 6.859375 23.046875 6.859375 23.046875 5.171875 1.109375 5.171875"></polygon>
                    <polygon id="Path" points="0.265625 22.890625 23.890625 22.890625 23.890625 21.203125 0.265625 21.203125"></polygon>
                    <polygon id="Path" points="1.109375 5.171875 23.046875 5.171875 12.078125 0.109375"></polygon>
                </g>
            </g>
        </g>
    </g>
</svg>