<svg xmlns="http://www.w3.org/2000/svg" viewBox="0 0 41 41"><defs><style>.cls-1{fill:none;stroke:#1d1d1b;}.cls-2{fill:#1d1d1b;}</style></defs><title>Asset 5</title><g id="Layer_2" data-name="Layer 2"><g id="Layer_1-2" data-name="Layer 1"><circle class="cls-1" cx="20.5" cy="20.5" r="20"/><path class="cls-1" d="M6.31,26.06v-2.4a3.32,3.32,0,0,1,3.32-3.32h4.44a3.32,3.32,0,0,1,3.32,3.32v2.4"/><circle class="cls-1" cx="11.85" cy="17.33" r="2.61"/><path class="cls-1" d="M23.61,26.06v-2.4a3.32,3.32,0,0,1,3.32-3.32h4.44a3.32,3.32,0,0,1,3.32,3.32v2.4"/><circle class="cls-1" cx="29.15" cy="17.33" r="2.61"/><path class="cls-1" d="M29.5,12.05a13.29,13.29,0,0,0-15.39-1.9"/><polygon class="cls-2" points="13.4 7.99 11.5 12.05 15.97 11.67 13.4 7.99"/><path class="cls-1" d="M26.76,31.07a13.29,13.29,0,0,1-15.39-1.9"/><polygon class="cls-2" points="24.91 29.56 29.38 29.17 27.48 33.24 24.91 29.56"/></g></g></svg>