<?xml version="1.0" encoding="UTF-8" standalone="no"?>
<svg width="42px" height="42px" viewBox="0 0 42 42" version="1.1" xmlns="http://www.w3.org/2000/svg" xmlns:xlink="http://www.w3.org/1999/xlink">
    <!-- Generator: Sketch 42 (36781) - http://www.bohemiancoding.com/sketch -->
    <title>Conclusion icon</title>
    <desc>Created with Sketch.</desc>
    <defs></defs>
    <g id="Page-1" stroke="none" stroke-width="1" fill="none" fill-rule="evenodd">
        <g id="Cost" transform="translate(-6286.000000, -2117.000000)" stroke="#000000">
            <g id="Conclusion-icon" transform="translate(6287.000000, 2118.000000)">
                <ellipse id="Oval" cx="20" cy="20" rx="20" ry="20"></ellipse>
                <g id="file_tick" transform="translate(10.500000, 8.000000)" stroke-linecap="round" stroke-linejoin="round">
                    <path d="M6.6796875,21.4296875 L1.609375,21.4296875 C0.8460625,21.4296875 0.2265625,20.8101875 0.2265625,20.046875 L0.2265625,1.609375 C0.2265625,0.8460625 0.8460625,0.2265625 1.609375,0.2265625 L10.828125,0.2265625 L15.8984375,5.296875 L15.8984375,17.7421875" id="Path"></path>
                    <path d="M10.3671875,0.2265625 L10.3671875,4.375 C10.3671875,5.1383125 10.9866875,5.7578125 11.75,5.7578125 L15.8984375,5.7578125" id="Path"></path>
                    <path d="M22.3381953,14.9765625 L13.1328125,24.1819453 L22.3381953,14.9765625 Z" id="Path"></path>
                    <path d="M13.1328125,24.1962344 L8.5234375,19.5859375 L13.1328125,24.1962344 Z" id="Path"></path>
                </g>
            </g>
        </g>
    </g>
</svg>