<?xml version="1.0" encoding="UTF-8" standalone="no"?>
<svg width="43px" height="43px" viewBox="0 0 43 43" version="1.1" xmlns="http://www.w3.org/2000/svg" xmlns:xlink="http://www.w3.org/1999/xlink">
    <!-- Generator: Sketch 42 (36781) - http://www.bohemiancoding.com/sketch -->
    <title>Coll law icon</title>
    <desc>Created with Sketch.</desc>
    <defs></defs>
    <g id="Page-1" stroke="none" stroke-width="1" fill="none" fill-rule="evenodd">
        <g id="Cost" transform="translate(-6285.000000, -2061.000000)" stroke="#000000">
            <g id="Coll-law-icon" transform="translate(6286.000000, 2062.000000)">
                <ellipse id="Oval" cx="20.3773585" cy="20.3773585" rx="20.3773585" ry="20.3773585"></ellipse>
                <g id="Group" transform="translate(5.000000, 7.000000)" stroke-linecap="round" stroke-linejoin="round">
                    <g id="users_two-copy" transform="translate(16.682299, 7.199565)">
                        <path d="M7.61011476,4.46052396 C7.61011476,5.82916139 6.8966665,7.92982037 5.23195389,7.92982037 C3.56724129,7.92982037 2.85379303,5.82916139 2.85379303,4.46052396 C2.85379303,2.97368264 3.32942521,1.48684132 5.23195389,1.48684132 C7.13448258,1.48684132 7.61011476,2.97368264 7.61011476,4.46052396 L7.61011476,4.46052396 Z" id="Path"></path>
                        <path d="M7.60987694,7.92982037 C9.75045953,8.28269737 10.2260917,9.02611803 10.4639078,11.0085731 C10.4639078,11.6243732 8.12141934,11.9998007 5.23195389,11.9998007 C2.34248845,11.9998007 0,11.6243732 0,11.0085731 C0.237816086,9.02611803 0.713448258,8.28269737 2.85379303,7.93006817" id="Path"></path>
                        <path d="M6.8966665,0.990979739 C7.18323488,0.392526108 7.7409136,0 8.75829082,0 C10.4836465,0 10.909813,1.12950379 10.909813,2.47806886 C10.909813,3.71933356 10.2679473,5.4517515 8.75829082,5.4517515 C8.68028714,5.4517515 8.60489944,5.44704317 8.53165209,5.43812212" id="Path"></path>
                        <path d="M10.7017239,5.4517515 C12.858478,5.67651235 13.0525359,6.54656233 13.290352,8.28121053 C13.290352,8.67051515 12.3623936,8.87842513 10.9121911,8.96837903" id="Path"></path>
                    </g>
                    <g id="Group-2" transform="translate(5.210355, 0.000000)">
                        <path d="M18.9962678,21.6666667 C16.8671027,24.31325 13.1032034,26 9.49813388,26 C5.8930644,26 2.12863734,24.31325 0,21.6666667" id="Path"></path>
                        <path d="M0,4.33333333 C2.12916501,1.68675 5.8930644,0 9.49813388,0 C13.1032034,0 16.8676304,1.68675 18.9962678,4.33333333" id="Path"></path>
                        <polyline id="Path" points="18.9962678 23.8333333 18.9962678 21.6666667 16.8855713 21.6666667"></polyline>
                        <polyline id="Path" points="2.11069642 4.33333333 0 4.33333333 0 2.16666667"></polyline>
                    </g>
                    <g id="users_two-copy-2" transform="translate(7.317701, 13.199565) scale(-1, 1) translate(-7.317701, -13.199565) translate(0.317701, 7.199565)">
                        <path d="M7.61011476,4.46052396 C7.61011476,5.82916139 6.8966665,7.92982037 5.23195389,7.92982037 C3.56724129,7.92982037 2.85379303,5.82916139 2.85379303,4.46052396 C2.85379303,2.97368264 3.32942521,1.48684132 5.23195389,1.48684132 C7.13448258,1.48684132 7.61011476,2.97368264 7.61011476,4.46052396 L7.61011476,4.46052396 Z" id="Path"></path>
                        <path d="M7.60987694,7.92982037 C9.75045953,8.28269737 10.2260917,9.02611803 10.4639078,11.0085731 C10.4639078,11.6243732 8.12141934,11.9998007 5.23195389,11.9998007 C2.34248845,11.9998007 1.95399252e-13,11.6243732 1.95399252e-13,11.0085731 C0.237816086,9.02611803 0.713448258,8.28269737 2.85379303,7.93006817" id="Path"></path>
                        <path d="M6.8966665,0.990979739 C7.18323488,0.392526108 7.7409136,0 8.75829082,0 C10.4836465,0 10.909813,1.12950379 10.909813,2.47806886 C10.909813,3.71933356 10.2679473,5.4517515 8.75829082,5.4517515 C8.68028714,5.4517515 8.60489944,5.44704317 8.53165209,5.43812212" id="Path"></path>
                        <path d="M10.7017239,5.4517515 C12.858478,5.67651235 13.0525359,6.54656233 13.290352,8.28121053 C13.290352,8.67051515 12.3623936,8.87842513 10.9121911,8.96837903" id="Path"></path>
                    </g>
                </g>
            </g>
        </g>
    </g>
</svg>