<?xml version="1.0" encoding="UTF-8" standalone="no"?>
<svg width="42px" height="42px" viewBox="0 0 42 42" version="1.1" xmlns="http://www.w3.org/2000/svg" xmlns:xlink="http://www.w3.org/1999/xlink">
    <!-- Generator: Sketch 42 (36781) - http://www.bohemiancoding.com/sketch -->
    <title>Intro icon</title>
    <desc>Created with Sketch.</desc>
    <defs></defs>
    <g id="Page-1" stroke="none" stroke-width="1" fill="none" fill-rule="evenodd">
        <g id="Cost" transform="translate(-6285.000000, -2006.000000)" stroke="#4A4A4A">
            <g id="Intro-icon" transform="translate(6286.000000, 2007.000000)">
                <ellipse id="Oval" cx="20" cy="20" rx="20" ry="20"></ellipse>
                <g id="users_two_switch_2" transform="translate(6.000000, 9.000000)" stroke-linecap="round" stroke-linejoin="round">
                    <path d="M22.4,18.75 C20.517,21.0403125 17.1882667,22.5 14,22.5 C10.8117333,22.5 7.48253333,21.0403125 5.6,18.75" id="Path"></path>
                    <path d="M5.6,3.75 C7.483,1.4596875 10.8117333,0 14,0 C17.1882667,0 20.5174667,1.4596875 22.4,3.75" id="Path"></path>
                    <polyline id="Path" points="22.4 20.625 22.4 18.75 20.5333333 18.75"></polyline>
                    <polyline id="Path" points="7.46666667 3.75 5.6 3.75 5.6 1.875"></polyline>
                    <path d="M7.46666667,8.90625 C7.46666667,10.2009375 6.42226667,11.25 5.13333333,11.25 C3.8444,11.25 2.8,10.2009375 2.8,8.90625 C2.8,7.6115625 3.8444,6.5625 5.13333333,6.5625 C6.42226667,6.5625 7.46666667,7.6115625 7.46666667,8.90625 L7.46666667,8.90625 Z" id="Path"></path>
                    <path d="M0,15.9375 C0.235666667,13.3092188 2.4556,11.25 5.13333333,11.25 C7.8106,11.25 10.0305333,13.3101562 10.2666667,15.9375" id="Path"></path>
                    <path d="M25.2,8.90625 C25.2,10.2009375 24.1556,11.25 22.8666667,11.25 C21.5777333,11.25 20.5333333,10.2009375 20.5333333,8.90625 C20.5333333,7.6115625 21.5777333,6.5625 22.8666667,6.5625 C24.1556,6.5625 25.2,7.6115625 25.2,8.90625 L25.2,8.90625 Z" id="Path"></path>
                    <path d="M17.7333333,15.9375 C17.969,13.3092188 20.1889333,11.25 22.8666667,11.25 C25.5439333,11.25 27.7638667,13.3101562 28,15.9375" id="Path"></path>
                </g>
            </g>
        </g>
    </g>
</svg>