<?xml version="1.0" encoding="UTF-8" standalone="no"?>
<svg width="42px" height="42px" viewBox="0 0 42 42" version="1.1" xmlns="http://www.w3.org/2000/svg" xmlns:xlink="http://www.w3.org/1999/xlink">
    <!-- Generator: Sketch 41.2 (35397) - http://www.bohemiancoding.com/sketch -->
    <title>Mediation icon</title>
    <desc>Created with Sketch.</desc>
    <defs></defs>
    <g id="Page-1" stroke="none" stroke-width="1" fill="none" fill-rule="evenodd">
        <g id="Artboard-Copy-3" transform="translate(-179.000000, -963.000000)" stroke="#000000">
            <g id="Mediation-icon" transform="translate(180.000000, 964.000000)">
                <ellipse id="Oval" cx="19.8803497" cy="19.8803497" rx="19.8803497" ry="19.8803497"></ellipse>
                <g id="users_three_switch_2" transform="translate(6.092959, 8.080994)" stroke-linecap="round" stroke-linejoin="round">
                    <path d="M9.54412103,2.9742867 C10.8471848,2.31588213 12.1534558,2.05792683 13.6677405,2.05792683 C15.1824833,2.05792683 16.5171615,2.31588213 17.7913599,2.9742867" id="Path"></path>
                    <path d="M21.4567994,11.2215255 C21.0645973,13.4272038 19.6222469,15.5751513 17.7913599,16.7196848" id="Path"></path>
                    <path d="M9.54412103,16.7196848 C7.71369219,15.5751513 6.27088357,13.4267456 5.87868155,11.2215255" id="Path"></path>
                    <polyline id="Path" points="9.773211 14.886965 9.773211 16.7196848 7.71140129 16.7196848"></polyline>
                    <polyline id="Path" points="19.6240796 12.3669754 21.4567994 11.2215255 22.6022492 12.8251553"></polyline>
                    <polyline id="Path" points="10.4604809 1.14156696 9.54412103 2.9742867 11.3768408 3.89064657"></polyline>
                    <path d="M15.9586401,17.1778647 C15.9586401,18.4433577 14.9332334,19.4687644 13.6677405,19.4687644 C12.4022475,19.4687644 11.3768408,18.4433577 11.3768408,17.1778647 C11.3768408,15.9123717 12.4022475,14.886965 13.6677405,14.886965 C14.9332334,14.886965 15.9586401,15.9123717 15.9586401,17.1778647 L15.9586401,17.1778647 Z" id="Path"></path>
                    <path d="M8.62776116,24.0505637 C8.85914203,21.4815488 11.038704,19.4687644 13.6677405,19.4687644 C16.2963187,19.4687644 18.4758807,21.4824652 18.7077197,24.0505637" id="Path"></path>
                    <path d="M24.205879,2.51610676 C24.205879,3.78159975 23.1804723,4.80700644 21.9149793,4.80700644 C20.6494863,4.80700644 19.6240796,3.78159975 19.6240796,2.51610676 C19.6240796,1.25061378 20.6494863,0.225207087 21.9149793,0.225207087 C23.1804723,0.225207087 24.205879,1.25061378 24.205879,2.51610676 L24.205879,2.51610676 Z" id="Path"></path>
                    <path d="M16.875,9.3888058 C17.1063809,6.8197909 19.2859428,4.80700644 21.9149793,4.80700644 C24.5435576,4.80700644 26.7231195,6.82070726 26.9549586,9.3888058" id="Path"></path>
                    <path d="M7.71140129,2.51610676 C7.71140129,3.78159975 6.68599459,4.80700644 5.42050161,4.80700644 C4.15500863,4.80700644 3.12960193,3.78159975 3.12960193,2.51610676 C3.12960193,1.25061378 4.15500863,0.225207087 5.42050161,0.225207087 C6.68599459,0.225207087 7.71140129,1.25061378 7.71140129,2.51610676 L7.71140129,2.51610676 Z" id="Path"></path>
                    <path d="M0.380522319,9.3888058 C0.611903187,6.8197909 2.79146514,4.80700644 5.42050161,4.80700644 C8.0490799,4.80700644 10.2286419,6.82070726 10.4604809,9.3888058" id="Path"></path>
                </g>
            </g>
        </g>
    </g>
</svg>