<?xml version="1.0" encoding="UTF-8" standalone="no"?>
<svg width="22px" height="22px" viewBox="0 0 22 22" version="1.1" xmlns="http://www.w3.org/2000/svg" xmlns:xlink="http://www.w3.org/1999/xlink">
    <!-- Generator: Sketch 41.1 (35376) - http://www.bohemiancoding.com/sketch -->
    <title>file_send</title>
    <desc>Created with Sketch.</desc>
    <defs></defs>
    <g id="Triage" stroke="none" stroke-width="1" fill="none" fill-rule="evenodd" stroke-linecap="round" stroke-linejoin="round">
        <g id="Negotiating-detail" transform="translate(-837.000000, -186.000000)" stroke="#666666">
            <g id="Print-and-Share" transform="translate(690.000000, 184.000000)">
                <g id="file_send" transform="translate(148.000000, 3.000000)">
                    <polyline id="Path" points="1.30472996 0 10.0029297 0 14.7869395 4.78400985 14.7869395 8.69819973"></polyline>
                    <path d="M9.5680197,0 L9.5680197,3.91418988 C9.5680197,4.63440082 10.1525387,5.21891984 10.8727497,5.21891984 L14.7869395,5.21891984" id="Path"></path>
                    <path d="M6.95855978,11.3076596 L20.0058594,11.3076596 L6.95855978,11.3076596 Z" id="Path"></path>
                    <path d="M20.0058594,11.3076596 L16.5265795,7.82837976 L20.0058594,11.3076596 Z" id="Path"></path>
                    <path d="M20.0058594,11.3076596 L16.5265795,14.7869395 L20.0058594,11.3076596 Z" id="Path"></path>
                    <path d="M1.30472996,0 C0.584519022,0 0,0.584519022 0,1.30472996 L0,18.7011294 C0,19.4213404 0.584519022,20.0058594 1.30472996,20.0058594 L13.4822096,20.0058594 C14.2028554,20.0058594 14.7869395,19.4213404 14.7869395,18.7011294 L14.7869395,13.9171196" id="Path"></path>
                </g>
            </g>
        </g>
    </g>
</svg>