<?xml version="1.0" encoding="UTF-8"?>
<svg width="26px" height="18px" viewBox="0 0 26 18" version="1.1" xmlns="http://www.w3.org/2000/svg" xmlns:xlink="http://www.w3.org/1999/xlink">
    <!-- Generator: Sketch 41 (35326) - http://www.bohemiancoding.com/sketch -->
    <title>“</title>
    <desc>Created with Sketch.</desc>
    <defs></defs>
    <g id="Triage" stroke="none" stroke-width="1" fill="none" fill-rule="evenodd">
        <g id="Mediation-Detail" transform="translate(-90.000000, -3180.000000)" fill="#4A4A4A">
            <g id="Case-Studies" transform="translate(0.000000, 2005.000000)">
                <g id="Case-Study-Copy" transform="translate(30.000000, 116.000000)">
                    <g id="Quote" transform="translate(30.000000, 1018.000000)">
                        <path d="M50.1445312,58.3652344 C49.2265579,58.3652344 48.4013708,58.1894549 47.6689453,57.8378906 C46.9365198,57.4863264 46.311526,57.0078155 45.7939453,56.4023438 C45.2763646,55.796872 44.875978,55.0888712 44.5927734,54.2783203 C44.3095689,53.4677694 44.1679688,52.5937547 44.1679688,51.65625 C44.1679688,50.6015572 44.3291,49.5127009 44.6513672,48.3896484 C44.9736344,47.2665959 45.520504,46.2216845 46.2919922,45.2548828 C47.0634804,44.2880811 48.0790953,43.4531285 49.3388672,42.75 C50.5986391,42.0468715 52.1660062,41.5878917 54.0410156,41.3730469 L55.0664062,44.4492188 L54.2460938,44.6835938 C53.2304637,44.976564 52.3955111,45.3085919 51.7412109,45.6796875 C51.0869108,46.0507831 50.5644551,46.4414042 50.1738281,46.8515625 C49.7832012,47.2617208 49.4951181,47.6669902 49.3095703,48.0673828 C49.1240225,48.4677754 49.0019534,48.8437482 48.9433594,49.1953125 C49.1582042,48.999999 49.431639,48.8583989 49.7636719,48.7705078 C50.0957048,48.6826167 50.4472638,48.6386719 50.8183594,48.6386719 C51.4433625,48.6386719 52.0341769,48.7412099 52.5908203,48.9462891 C53.1474637,49.1513682 53.6357401,49.4492168 54.0556641,49.8398438 C54.475588,50.2304707 54.8124987,50.7187471 55.0664062,51.3046875 C55.3203138,51.8906279 55.4472656,52.5644493 55.4472656,53.3261719 C55.4472656,54.0293004 55.3056655,54.6884735 55.0224609,55.3037109 C54.7392564,55.9189484 54.3535181,56.4511696 53.8652344,56.9003906 C53.3769507,57.3496116 52.8105501,57.7060534 52.1660156,57.9697266 C51.5214812,58.2333998 50.8476598,58.3652344 50.1445312,58.3652344 Z M36.2871094,58.3652344 C35.369136,58.3652344 34.543949,58.1894549 33.8115234,57.8378906 C33.0790979,57.4863264 32.4541042,57.0078155 31.9365234,56.4023438 C31.4189427,55.796872 31.0185561,55.0888712 30.7353516,54.2783203 C30.452147,53.4677694 30.3105469,52.5937547 30.3105469,51.65625 C30.3105469,50.6015572 30.4716781,49.5127009 30.7939453,48.3896484 C31.1162125,47.2665959 31.6630821,46.2216845 32.4345703,45.2548828 C33.2060585,44.2880811 34.2216734,43.4531285 35.4814453,42.75 C36.7412172,42.0468715 38.3085844,41.5878917 40.1835938,41.3730469 L41.2089844,44.4492188 L40.3886719,44.6835938 C39.3730418,44.976564 38.5380892,45.3085919 37.8837891,45.6796875 C37.2294889,46.0507831 36.7070332,46.4414042 36.3164062,46.8515625 C35.9257793,47.2617208 35.6376962,47.6669902 35.4521484,48.0673828 C35.2666006,48.4677754 35.1445315,48.8437482 35.0859375,49.1953125 C35.3007823,48.999999 35.5742171,48.8583989 35.90625,48.7705078 C36.2382829,48.6826167 36.5898419,48.6386719 36.9609375,48.6386719 C37.5859406,48.6386719 38.176755,48.7412099 38.7333984,48.9462891 C39.2900418,49.1513682 39.7783182,49.4492168 40.1982422,49.8398438 C40.6181662,50.2304707 40.9550769,50.7187471 41.2089844,51.3046875 C41.4628919,51.8906279 41.5898438,52.5644493 41.5898438,53.3261719 C41.5898438,54.0293004 41.4482436,54.6884735 41.1650391,55.3037109 C40.8818345,55.9189484 40.4960962,56.4511696 40.0078125,56.9003906 C39.5195288,57.3496116 38.9531282,57.7060534 38.3085938,57.9697266 C37.6640593,58.2333998 36.9902379,58.3652344 36.2871094,58.3652344 Z" id="“"></path>
                    </g>
                </g>
            </g>
        </g>
    </g>
</svg>