<svg xmlns="http://www.w3.org/2000/svg" viewBox="0 0 41 41"><defs><style>.cls-1{fill:none;stroke:#1d1d1b;}.cls-2{fill:#1d1d1b;}</style></defs><title>Asset 2</title><g id="Layer_2" data-name="Layer 2"><g id="Layer_1-2" data-name="Layer 1"><circle class="cls-1" cx="20.5" cy="20.5" r="20"/><path class="cls-1" d="M7.4,19.76v-2A2.79,2.79,0,0,1,10.19,15h3.73a2.79,2.79,0,0,1,2.79,2.79v2"/><circle class="cls-1" cx="12.05" cy="12.42" r="2.19"/><path class="cls-1" d="M24.4,19.76v-2A2.79,2.79,0,0,1,27.19,15h3.73a2.79,2.79,0,0,1,2.79,2.79v2"/><circle class="cls-1" cx="29.05" cy="12.42" r="2.19"/><path class="cls-1" d="M15.85,33.93v-2a2.79,2.79,0,0,1,2.79-2.79h3.73a2.79,2.79,0,0,1,2.79,2.79v2"/><circle class="cls-1" cx="20.5" cy="26.59" r="2.19"/><path class="cls-1" d="M9.6,21.63a5.79,5.79,0,0,0,3,5.08"/><polygon class="cls-2" points="11.51 28.34 15.39 27.43 12.65 24.52 11.51 28.34"/><path class="cls-1" d="M24.36,11a5.79,5.79,0,0,0-5.72-1.47"/><polygon class="cls-2" points="18.26 7.56 16.17 10.95 20.16 11.07 18.26 7.56"/><path class="cls-1" d="M30.88,24a5.79,5.79,0,0,1-5.28,3.4"/><polygon class="cls-2" points="29.01 24.05 31.39 21.63 32.29 24.9 29.01 24.05"/></g></g></svg>