<svg xmlns="http://www.w3.org/2000/svg" viewBox="0 0 41 41"><defs><style>.cls-1,.cls-2{fill:none;stroke:#1d1d1b;}.cls-2{stroke-width:0.75px;}</style></defs><title>Asset 4</title><g id="Layer_2" data-name="Layer 2"><g id="Layer_1-2" data-name="Layer 1"><circle class="cls-1" cx="20.5" cy="20.5" r="20"/><line class="cls-2" x1="12.3" y1="24.92" x2="12.3" y2="16.57"/><line class="cls-2" x1="13.96" y1="24.92" x2="13.96" y2="16.57"/><polygon class="cls-2" points="32.69 28.73 9.22 28.73 10.05 26.68 31.86 26.68 32.69 28.73"/><rect class="cls-2" x="11.65" y="24.82" width="2.96" height="1.87"/><rect class="cls-2" x="16.8" y="24.82" width="2.96" height="1.87"/><rect class="cls-2" x="21.95" y="24.82" width="2.96" height="1.87"/><rect class="cls-2" x="27.1" y="24.82" width="2.96" height="1.87"/><line class="cls-2" x1="17.45" y1="24.92" x2="17.45" y2="16.57"/><line class="cls-2" x1="19.11" y1="24.92" x2="19.11" y2="16.57"/><line class="cls-2" x1="22.58" y1="24.92" x2="22.58" y2="16.57"/><line class="cls-2" x1="24.24" y1="24.92" x2="24.24" y2="16.57"/><line class="cls-2" x1="27.73" y1="24.92" x2="27.73" y2="16.57"/><line class="cls-2" x1="29.39" y1="24.92" x2="29.39" y2="16.57"/><rect class="cls-2" x="11.65" y="14.71" width="2.96" height="1.87"/><rect class="cls-2" x="16.8" y="14.71" width="2.96" height="1.87"/><rect class="cls-2" x="21.95" y="14.71" width="2.96" height="1.87"/><rect class="cls-2" x="27.1" y="14.71" width="2.96" height="1.87"/><rect class="cls-2" x="10.05" y="13" width="21.81" height="1.64"/><polyline class="cls-2" points="10.05 13.82 10.05 12.58 20.95 8.44 31.86 12.58 31.86 13.79"/></g></g></svg>